<?xml version="1.0" encoding="UTF-8" standalone="no"?>
<svg
   xmlns:dc="http://purl.org/dc/elements/1.1/"
   xmlns:cc="http://creativecommons.org/ns#"
   xmlns:rdf="http://www.w3.org/1999/02/22-rdf-syntax-ns#"
   xmlns:svg="http://www.w3.org/2000/svg"
   xmlns="http://www.w3.org/2000/svg"
   xmlns:sodipodi="http://sodipodi.sourceforge.net/DTD/sodipodi-0.dtd"
   xmlns:inkscape="http://www.inkscape.org/namespaces/inkscape"
   version="1.1"
   id="svg46"
   xml:space="preserve"
   width="252.64026"
   height="41.466667"
   viewBox="0 0 252.64026 41.466667"
   sodipodi:docname="pensieve-logo-revised-2.svg"
   inkscape:version="1.0.2 (e86c870879, 2021-01-15)"><metadata
     id="metadata52"><rdf:RDF><cc:Work
         rdf:about=""><dc:format>image/svg+xml</dc:format><dc:type
           rdf:resource="http://purl.org/dc/dcmitype/StillImage" /><dc:title></dc:title></cc:Work></rdf:RDF></metadata><defs
     id="defs50"><clipPath
       clipPathUnits="userSpaceOnUse"
       id="clipPath64"><path
         d="M 0,400 H 400 V 0 H 0 Z"
         id="path62" /></clipPath></defs><sodipodi:namedview
     pagecolor="#ffffff"
     bordercolor="#666666"
     borderopacity="1"
     objecttolerance="10"
     gridtolerance="10"
     guidetolerance="10"
     inkscape:pageopacity="0"
     inkscape:pageshadow="2"
     inkscape:window-width="2560"
     inkscape:window-height="1355"
     id="namedview48"
     showgrid="false"
     inkscape:zoom="1.8900001"
     inkscape:cx="62.952695"
     inkscape:cy="52.331179"
     inkscape:window-x="2560"
     inkscape:window-y="0"
     inkscape:window-maximized="1"
     inkscape:current-layer="g54"
     inkscape:snap-global="false"
     fit-margin-top="0"
     fit-margin-left="0"
     fit-margin-right="0"
     fit-margin-bottom="0" /><g
     id="g54"
     inkscape:groupmode="layer"
     inkscape:label="pensieve-logo-revised-2"
     transform="matrix(1.3333333,0,0,-1.3333333,-86.518199,382.48991)"><g
       id="g58"
       transform="translate(-39.098249,0.15634204)"
       inkscape:export-xdpi="96"
       inkscape:export-ydpi="96"><g
         id="g60"
         clip-path="url(#clipPath64)"><g
           id="g66"
           transform="translate(152.2862,200.1055)" /><g
           id="g70"
           transform="translate(167.6895,196.4414)" /><g
           id="g74"
           transform="translate(181.8096,205.6616)" /><g
           id="g78"
           transform="translate(187.2969,194.5083)" /><g
           id="g84"
           transform="translate(213.7852,196.4414)" /><g
           id="g88"
           transform="translate(228.5811,205.6616)" /><g
           id="g92"
           transform="translate(240.1651,196.4414)" /><g
           id="g96"
           transform="translate(255.4522,199.8301)" /><g
           id="g100"
           transform="translate(268.3536,199.8223)" /><g
           id="g104"
           transform="translate(283.0626,195.7456)" /><g
           id="g108"
           transform="translate(293.587,199.8301)" /><g
           id="g112"
           transform="translate(152.8047,270.9912)"><path
             d="M 0,0 C 0.539,0.437 0.809,1.065 0.809,1.885 0.809,2.704 0.539,3.333 0,3.769 -0.54,4.206 -1.321,4.424 -2.346,4.424 h -2.75 v -5.079 h 2.75 C -1.321,-0.655 -0.54,-0.437 0,0 M 1.164,4.78 C 2.006,4.079 2.426,3.114 2.426,1.885 2.426,0.655 2.006,-0.31 1.164,-1.011 0.323,-1.712 -0.831,-2.063 -2.298,-2.063 H -5.096 V -5.492 H -6.714 V 5.832 h 4.416 c 1.467,0 2.621,-0.351 3.462,-1.052"
             style="fill:#064458;fill-opacity:1;fill-rule:nonzero;stroke:none"
             id="path114" /></g><g
           id="g116"
           transform="translate(167.211,266.9067)"><path
             d="M 0,0 V -1.407 H -8.218 V 9.916 h 7.991 V 8.509 H -6.6 V 5.031 h 5.678 V 3.656 H -6.6 V 0 Z"
             style="fill:#064458;fill-opacity:1;fill-rule:nonzero;stroke:none"
             id="path118" /></g><g
           id="g120"
           transform="translate(180.7598,276.8228)"><path
             d="m 0,0 v -11.323 h -1.326 l -6.794,8.444 v -8.444 H -9.738 V 0 h 1.327 l 6.794,-8.444 V 0 Z"
             style="fill:#064458;fill-opacity:1;fill-rule:nonzero;stroke:none"
             id="path122" /></g><g
           id="g124"
           transform="translate(186.4581,265.7666)"><path
             d="M 0,0 C -0.792,0.264 -1.415,0.606 -1.868,1.027 L -1.27,2.289 C -0.838,1.9 -0.285,1.585 0.389,1.342 1.062,1.1 1.756,0.979 2.467,0.979 c 0.938,0 1.639,0.159 2.103,0.477 0.464,0.317 0.696,0.741 0.696,1.27 0,0.388 -0.127,0.703 -0.38,0.946 C 4.632,3.915 4.319,4.101 3.947,4.23 3.575,4.359 3.05,4.505 2.37,4.667 1.519,4.872 0.831,5.076 0.308,5.281 c -0.524,0.205 -0.971,0.521 -1.343,0.947 -0.372,0.426 -0.558,1 -0.558,1.723 0,0.603 0.159,1.148 0.477,1.633 0.318,0.485 0.801,0.874 1.448,1.165 0.647,0.291 1.45,0.437 2.41,0.437 0.669,0 1.326,-0.087 1.974,-0.259 0.646,-0.173 1.202,-0.421 1.666,-0.744 L 5.848,8.889 C 5.373,9.19 4.866,9.42 4.327,9.576 3.788,9.732 3.26,9.811 2.742,9.811 1.825,9.811 1.138,9.644 0.68,9.309 0.222,8.975 -0.008,8.543 -0.008,8.015 -0.008,7.627 0.122,7.312 0.381,7.069 0.64,6.826 0.96,6.637 1.343,6.503 1.726,6.368 2.246,6.225 2.904,6.074 3.756,5.869 4.44,5.664 4.958,5.459 5.476,5.254 5.921,4.942 6.293,4.521 6.665,4.101 6.851,3.534 6.851,2.823 6.851,2.229 6.689,1.687 6.365,1.197 6.042,0.706 5.552,0.318 4.894,0.032 4.235,-0.254 3.427,-0.396 2.467,-0.396 1.615,-0.396 0.793,-0.265 0,0"
             style="fill:#064458;fill-opacity:1;fill-rule:nonzero;stroke:none"
             id="path126" /></g><path
           d="m 197.174,276.823 h 1.618 V 265.5 h -1.618 z"
           style="fill:#064458;fill-opacity:1;fill-rule:nonzero;stroke:none"
           id="path128" /><g
           id="g130"
           transform="translate(211.7501,266.9067)"><path
             d="M 0,0 V -1.407 H -8.218 V 9.916 h 7.991 V 8.509 H -6.6 V 5.031 h 5.678 V 3.656 H -6.6 V 0 Z"
             style="fill:#064458;fill-opacity:1;fill-rule:nonzero;stroke:none"
             id="path132" /></g><g
           id="g134"
           transform="translate(226.0128,276.8228)"><path
             d="M 0,0 -4.967,-11.323 H -6.568 L -11.551,0 h 1.747 L -5.727,-9.301 -1.618,0 Z"
             style="fill:#064458;fill-opacity:1;fill-rule:nonzero;stroke:none"
             id="path136" /></g><g
           id="g138"
           transform="translate(237.4415,266.9067)"><path
             d="M 0,0 V -1.407 H -8.218 V 9.916 h 7.991 V 8.509 H -6.6 V 5.031 h 5.678 V 3.656 H -6.6 V 0 Z"
             style="fill:#064458;fill-opacity:1;fill-rule:nonzero;stroke:none"
             id="path140" /></g><g
           id="g142"
           transform="translate(252.9063,270.9912)"><path
             d="M 0,0 C 0.539,0.437 0.809,1.065 0.809,1.885 0.809,2.704 0.539,3.333 0,3.769 -0.54,4.206 -1.321,4.424 -2.346,4.424 h -2.75 v -5.079 h 2.75 C -1.321,-0.655 -0.54,-0.437 0,0 M 1.164,4.78 C 2.006,4.079 2.426,3.114 2.426,1.885 2.426,0.655 2.006,-0.31 1.164,-1.011 0.323,-1.712 -0.831,-2.063 -2.298,-2.063 H -5.096 V -5.492 H -6.714 V 5.832 h 4.416 c 1.467,0 2.621,-0.351 3.462,-1.052"
             style="fill:#064458;fill-opacity:1;fill-rule:nonzero;stroke:none"
             id="path144" /></g><g
           id="g146"
           transform="translate(265.8077,270.9834)"><path
             d="M 0,0 C 0.539,0.442 0.809,1.073 0.809,1.893 0.809,2.712 0.539,3.34 0,3.777 -0.54,4.214 -1.321,4.432 -2.346,4.432 h -2.75 v -5.096 h 2.75 C -1.321,-0.664 -0.54,-0.442 0,0 m 0.856,-5.484 -2.442,3.478 C -1.888,-2.028 -2.125,-2.039 -2.298,-2.039 H -5.096 V -5.484 H -6.714 V 5.839 h 4.416 c 1.467,0 2.621,-0.35 3.462,-1.051 C 2.006,4.087 2.426,3.122 2.426,1.893 2.426,1.019 2.21,0.275 1.779,-0.34 1.348,-0.955 0.732,-1.402 -0.065,-1.683 L 2.62,-5.484 Z"
             style="fill:#064458;fill-opacity:1;fill-rule:nonzero;stroke:none"
             id="path148" /></g><g
           id="g150"
           transform="translate(280.5167,266.9067)"><path
             d="M 0,0 V -1.407 H -8.218 V 9.916 h 7.991 V 8.509 H -6.6 V 5.031 h 5.678 V 3.656 H -6.6 V 0 Z"
             style="fill:#064458;fill-opacity:1;fill-rule:nonzero;stroke:none"
             id="path152" /></g><g
           id="g154"
           transform="translate(291.0411,270.9912)"><path
             d="M 0,0 C 0.539,0.437 0.809,1.065 0.809,1.885 0.809,2.704 0.539,3.333 0,3.769 -0.54,4.206 -1.321,4.424 -2.346,4.424 h -2.75 v -5.079 h 2.75 C -1.321,-0.655 -0.54,-0.437 0,0 M 1.164,4.78 C 2.006,4.079 2.426,3.114 2.426,1.885 2.426,0.655 2.006,-0.31 1.164,-1.011 0.323,-1.712 -0.831,-2.063 -2.298,-2.063 H -5.096 V -5.492 H -6.714 V 5.832 h 4.416 c 1.467,0 2.621,-0.351 3.462,-1.052"
             style="fill:#064458;fill-opacity:1;fill-rule:nonzero;stroke:none"
             id="path156" /></g><g
           id="g158"
           transform="translate(152.2862,128.9443)" /><g
           id="g162"
           transform="translate(167.6895,125.2803)" /><g
           id="g166"
           transform="translate(181.8096,134.5005)" /><g
           id="g170"
           transform="translate(187.2969,123.3472)" /><g
           id="g176"
           transform="translate(213.7852,125.2803)" /><g
           id="g180"
           transform="translate(228.5811,134.5005)" /><g
           id="g184"
           transform="translate(240.1651,125.2803)" /><g
           id="g188"
           transform="translate(250.7901,128.6689)" /><g
           id="g192"
           transform="translate(263.6915,128.6611)" /><g
           id="g196"
           transform="translate(278.4005,124.5845)" /><g
           id="g200"
           transform="translate(288.9249,128.6689)" /><g
           id="g204"
           transform="translate(135.0889,271.1611)"><path
             d="m 0,0 c 0,8.575 -6.977,15.55 -15.551,15.55 -8.575,0 -15.551,-6.975 -15.551,-15.55 0,-2.396 0.531,-4.693 1.578,-6.829 l 0.019,-0.041 c 0.172,-0.347 0.361,-0.696 0.563,-1.036 1.704,-2.833 4.056,-4.276 5.729,-4.989 2.897,-1.161 6.114,-1.33 9.059,-0.473 0.492,0.143 0.993,0.325 1.49,0.538 8.243,3.778 7.146,11.842 6.995,12.749 -0.159,0.825 -0.412,1.629 -0.751,2.385 -1.075,2.269 -3.288,4.103 -5.773,4.783 -1.661,0.455 -3.318,0.366 -4.779,-0.238 2.013,0.265 4.075,-0.211 5.8,-1.369 2.032,-1.363 3.319,-3.521 3.533,-5.92 0.169,-2.09 -0.382,-4.109 -1.597,-5.839 -1.177,-1.678 -2.918,-2.945 -4.903,-3.568 -0.896,-0.275 -1.823,-0.413 -2.757,-0.413 -3.338,0 -6.504,1.802 -8.263,4.702 -1.791,3.023 -1.918,6.692 -0.351,10.069 1.437,3.032 4.217,5.224 7.628,6.016 1.704,0.396 3.506,0.418 5.209,0.065 1.801,-0.373 3.432,-1.134 4.848,-2.26 C -7.673,8.209 -7.519,8.077 -7.337,7.917 -7.26,7.848 -7.25,7.73 -7.314,7.649 -7.378,7.569 -7.495,7.553 -7.579,7.612 c -2.373,1.682 -4.891,2.196 -6.181,2.352 -0.499,0.06 -0.824,0.069 -0.902,0.07 -0.005,0 -0.01,0 -0.014,0 -1.043,0.036 -2.09,-0.078 -3.108,-0.339 -4.419,-1.247 -7.585,-5.19 -7.695,-9.589 -0.11,-2.754 1.196,-5.455 3.495,-7.227 2.166,-1.671 4.817,-2.198 7.276,-1.445 2.891,0.925 4.886,3.214 5.204,5.972 0.463,3.009 -1.329,5.748 -4.167,6.378 -1.539,0.236 -2.887,-0.185 -3.79,-1.19 -0.879,-1.099 -0.922,-2.602 -0.101,-3.732 0.375,-0.428 0.885,-0.679 1.392,-0.679 h 0.012 c 0.402,0.002 0.763,0.167 1.018,0.464 0.194,0.194 0.297,0.455 0.397,0.708 0.13,0.325 0.263,0.662 0.573,0.817 0.358,0.179 0.913,0.232 1.529,-0.526 0.196,-0.25 0.52,-0.771 0.511,-1.483 l -0.012,-0.213 c -0.029,-0.32 -0.108,-0.657 -0.239,-1.032 -0.077,-0.204 -0.211,-0.511 -0.421,-0.83 l -0.028,-0.041 c -0.031,-0.045 -0.053,-0.077 -0.076,-0.109 -0.883,-1.192 -2.209,-1.897 -3.74,-1.991 -1.636,-0.1 -3.279,0.539 -4.396,1.712 -1.182,1.181 -1.864,2.697 -1.971,4.383 -0.102,1.607 0.347,3.284 1.266,4.72 1.534,2.125 3.605,3.375 6.16,3.724 3.194,0.343 6.318,-0.966 8.583,-3.589 1.476,-1.764 2.326,-3.869 2.476,-6.111 0.008,-0.127 0.043,-0.629 0.038,-1.037 -0.028,-2.104 -0.764,-8.716 -8.438,-11.562 -0.539,-0.203 -1.083,-0.376 -1.614,-0.513 -0.009,-0.003 -0.018,-0.004 -0.027,-0.005 l 0.001,-0.002 c -1.952,-0.501 -3.926,-0.589 -5.872,-0.264 -0.332,0.054 -0.642,0.114 -0.928,0.176 1.841,-0.743 3.82,-1.129 5.817,-1.129 C -6.977,-15.55 0,-8.575 0,0"
             style="fill:#064458;fill-opacity:1;fill-rule:nonzero;stroke:none"
             id="path206" /></g><g
           id="g208"
           transform="translate(135.0889,200)" /><g
           id="g212"
           transform="translate(135.0889,128.8389)" /></g></g><g
       id="g639"
       transform="translate(-39.098249,0.15634204)"
       inkscape:export-xdpi="96"
       inkscape:export-ydpi="96"><g
         id="g637"
         clip-path="url(#clipPath64)"><g
           id="g539"
           transform="translate(152.2862,200.1055)" /><g
           id="g541"
           transform="translate(167.6895,196.4414)" /><g
           id="g543"
           transform="translate(181.8096,205.6616)" /><g
           id="g545"
           transform="translate(187.2969,194.5083)" /><g
           id="g547"
           transform="translate(213.7852,196.4414)" /><g
           id="g549"
           transform="translate(228.5811,205.6616)" /><g
           id="g551"
           transform="translate(240.1651,196.4414)" /><g
           id="g553"
           transform="translate(255.4522,199.8301)" /><g
           id="g555"
           transform="translate(268.3536,199.8223)" /><g
           id="g557"
           transform="translate(283.0626,195.7456)" /><g
           id="g559"
           transform="translate(293.587,199.8301)" /><g
           id="g563"
           transform="translate(152.8047,270.9912)"><path
             d="M 0,0 C 0.539,0.437 0.809,1.065 0.809,1.885 0.809,2.704 0.539,3.333 0,3.769 -0.54,4.206 -1.321,4.424 -2.346,4.424 h -2.75 v -5.079 h 2.75 C -1.321,-0.655 -0.54,-0.437 0,0 M 1.164,4.78 C 2.006,4.079 2.426,3.114 2.426,1.885 2.426,0.655 2.006,-0.31 1.164,-1.011 0.323,-1.712 -0.831,-2.063 -2.298,-2.063 H -5.096 V -5.492 H -6.714 V 5.832 h 4.416 c 1.467,0 2.621,-0.351 3.462,-1.052"
             style="fill:#064458;fill-opacity:1;fill-rule:nonzero;stroke:none"
             id="path561" /></g><g
           id="g567"
           transform="translate(167.211,266.9067)"><path
             d="M 0,0 V -1.407 H -8.218 V 9.916 h 7.991 V 8.509 H -6.6 V 5.031 h 5.678 V 3.656 H -6.6 V 0 Z"
             style="fill:#064458;fill-opacity:1;fill-rule:nonzero;stroke:none"
             id="path565" /></g><g
           id="g571"
           transform="translate(180.7598,276.8228)"><path
             d="m 0,0 v -11.323 h -1.326 l -6.794,8.444 v -8.444 H -9.738 V 0 h 1.327 l 6.794,-8.444 V 0 Z"
             style="fill:#064458;fill-opacity:1;fill-rule:nonzero;stroke:none"
             id="path569" /></g><g
           id="g575"
           transform="translate(186.4581,265.7666)"><path
             d="M 0,0 C -0.792,0.264 -1.415,0.606 -1.868,1.027 L -1.27,2.289 C -0.838,1.9 -0.285,1.585 0.389,1.342 1.062,1.1 1.756,0.979 2.467,0.979 c 0.938,0 1.639,0.159 2.103,0.477 0.464,0.317 0.696,0.741 0.696,1.27 0,0.388 -0.127,0.703 -0.38,0.946 C 4.632,3.915 4.319,4.101 3.947,4.23 3.575,4.359 3.05,4.505 2.37,4.667 1.519,4.872 0.831,5.076 0.308,5.281 c -0.524,0.205 -0.971,0.521 -1.343,0.947 -0.372,0.426 -0.558,1 -0.558,1.723 0,0.603 0.159,1.148 0.477,1.633 0.318,0.485 0.801,0.874 1.448,1.165 0.647,0.291 1.45,0.437 2.41,0.437 0.669,0 1.326,-0.087 1.974,-0.259 0.646,-0.173 1.202,-0.421 1.666,-0.744 L 5.848,8.889 C 5.373,9.19 4.866,9.42 4.327,9.576 3.788,9.732 3.26,9.811 2.742,9.811 1.825,9.811 1.138,9.644 0.68,9.309 0.222,8.975 -0.008,8.543 -0.008,8.015 -0.008,7.627 0.122,7.312 0.381,7.069 0.64,6.826 0.96,6.637 1.343,6.503 1.726,6.368 2.246,6.225 2.904,6.074 3.756,5.869 4.44,5.664 4.958,5.459 5.476,5.254 5.921,4.942 6.293,4.521 6.665,4.101 6.851,3.534 6.851,2.823 6.851,2.229 6.689,1.687 6.365,1.197 6.042,0.706 5.552,0.318 4.894,0.032 4.235,-0.254 3.427,-0.396 2.467,-0.396 1.615,-0.396 0.793,-0.265 0,0"
             style="fill:#064458;fill-opacity:1;fill-rule:nonzero;stroke:none"
             id="path573" /></g><path
           d="m 197.174,276.823 h 1.618 V 265.5 h -1.618 z"
           style="fill:#064458;fill-opacity:1;fill-rule:nonzero;stroke:none"
           id="path577" /><g
           id="g581"
           transform="translate(211.7501,266.9067)"><path
             d="M 0,0 V -1.407 H -8.218 V 9.916 h 7.991 V 8.509 H -6.6 V 5.031 h 5.678 V 3.656 H -6.6 V 0 Z"
             style="fill:#064458;fill-opacity:1;fill-rule:nonzero;stroke:none"
             id="path579" /></g><g
           id="g585"
           transform="translate(226.0128,276.8228)"><path
             d="M 0,0 -4.967,-11.323 H -6.568 L -11.551,0 h 1.747 L -5.727,-9.301 -1.618,0 Z"
             style="fill:#064458;fill-opacity:1;fill-rule:nonzero;stroke:none"
             id="path583" /></g><g
           id="g589"
           transform="translate(237.4415,266.9067)"><path
             d="M 0,0 V -1.407 H -8.218 V 9.916 h 7.991 V 8.509 H -6.6 V 5.031 h 5.678 V 3.656 H -6.6 V 0 Z"
             style="fill:#064458;fill-opacity:1;fill-rule:nonzero;stroke:none"
             id="path587" /></g><g
           id="g593"
           transform="translate(252.9063,270.9912)"><path
             d="M 0,0 C 0.539,0.437 0.809,1.065 0.809,1.885 0.809,2.704 0.539,3.333 0,3.769 -0.54,4.206 -1.321,4.424 -2.346,4.424 h -2.75 v -5.079 h 2.75 C -1.321,-0.655 -0.54,-0.437 0,0 M 1.164,4.78 C 2.006,4.079 2.426,3.114 2.426,1.885 2.426,0.655 2.006,-0.31 1.164,-1.011 0.323,-1.712 -0.831,-2.063 -2.298,-2.063 H -5.096 V -5.492 H -6.714 V 5.832 h 4.416 c 1.467,0 2.621,-0.351 3.462,-1.052"
             style="fill:#064458;fill-opacity:1;fill-rule:nonzero;stroke:none"
             id="path591" /></g><g
           id="g597"
           transform="translate(265.8077,270.9834)"><path
             d="M 0,0 C 0.539,0.442 0.809,1.073 0.809,1.893 0.809,2.712 0.539,3.34 0,3.777 -0.54,4.214 -1.321,4.432 -2.346,4.432 h -2.75 v -5.096 h 2.75 C -1.321,-0.664 -0.54,-0.442 0,0 m 0.856,-5.484 -2.442,3.478 C -1.888,-2.028 -2.125,-2.039 -2.298,-2.039 H -5.096 V -5.484 H -6.714 V 5.839 h 4.416 c 1.467,0 2.621,-0.35 3.462,-1.051 C 2.006,4.087 2.426,3.122 2.426,1.893 2.426,1.019 2.21,0.275 1.779,-0.34 1.348,-0.955 0.732,-1.402 -0.065,-1.683 L 2.62,-5.484 Z"
             style="fill:#064458;fill-opacity:1;fill-rule:nonzero;stroke:none"
             id="path595" /></g><g
           id="g601"
           transform="translate(280.5167,266.9067)"><path
             d="M 0,0 V -1.407 H -8.218 V 9.916 h 7.991 V 8.509 H -6.6 V 5.031 h 5.678 V 3.656 H -6.6 V 0 Z"
             style="fill:#064458;fill-opacity:1;fill-rule:nonzero;stroke:none"
             id="path599" /></g><g
           id="g605"
           transform="translate(291.0411,270.9912)"><path
             d="M 0,0 C 0.539,0.437 0.809,1.065 0.809,1.885 0.809,2.704 0.539,3.333 0,3.769 -0.54,4.206 -1.321,4.424 -2.346,4.424 h -2.75 v -5.079 h 2.75 C -1.321,-0.655 -0.54,-0.437 0,0 M 1.164,4.78 C 2.006,4.079 2.426,3.114 2.426,1.885 2.426,0.655 2.006,-0.31 1.164,-1.011 0.323,-1.712 -0.831,-2.063 -2.298,-2.063 H -5.096 V -5.492 H -6.714 V 5.832 h 4.416 c 1.467,0 2.621,-0.351 3.462,-1.052"
             style="fill:#064458;fill-opacity:1;fill-rule:nonzero;stroke:none"
             id="path603" /></g><g
           id="g607"
           transform="translate(152.2862,128.9443)" /><g
           id="g609"
           transform="translate(167.6895,125.2803)" /><g
           id="g611"
           transform="translate(181.8096,134.5005)" /><g
           id="g613"
           transform="translate(187.2969,123.3472)" /><g
           id="g615"
           transform="translate(213.7852,125.2803)" /><g
           id="g617"
           transform="translate(228.5811,134.5005)" /><g
           id="g619"
           transform="translate(240.1651,125.2803)" /><g
           id="g621"
           transform="translate(250.7901,128.6689)" /><g
           id="g623"
           transform="translate(263.6915,128.6611)" /><g
           id="g625"
           transform="translate(278.4005,124.5845)" /><g
           id="g627"
           transform="translate(288.9249,128.6689)" /><g
           id="g631"
           transform="translate(135.0889,271.1611)"><path
             d="m 0,0 c 0,8.575 -6.977,15.55 -15.551,15.55 -8.575,0 -15.551,-6.975 -15.551,-15.55 0,-2.396 0.531,-4.693 1.578,-6.829 l 0.019,-0.041 c 0.172,-0.347 0.361,-0.696 0.563,-1.036 1.704,-2.833 4.056,-4.276 5.729,-4.989 2.897,-1.161 6.114,-1.33 9.059,-0.473 0.492,0.143 0.993,0.325 1.49,0.538 8.243,3.778 7.146,11.842 6.995,12.749 -0.159,0.825 -0.412,1.629 -0.751,2.385 -1.075,2.269 -3.288,4.103 -5.773,4.783 -1.661,0.455 -3.318,0.366 -4.779,-0.238 2.013,0.265 4.075,-0.211 5.8,-1.369 2.032,-1.363 3.319,-3.521 3.533,-5.92 0.169,-2.09 -0.382,-4.109 -1.597,-5.839 -1.177,-1.678 -2.918,-2.945 -4.903,-3.568 -0.896,-0.275 -1.823,-0.413 -2.757,-0.413 -3.338,0 -6.504,1.802 -8.263,4.702 -1.791,3.023 -1.918,6.692 -0.351,10.069 1.437,3.032 4.217,5.224 7.628,6.016 1.704,0.396 3.506,0.418 5.209,0.065 1.801,-0.373 3.432,-1.134 4.848,-2.26 C -7.673,8.209 -7.519,8.077 -7.337,7.917 -7.26,7.848 -7.25,7.73 -7.314,7.649 -7.378,7.569 -7.495,7.553 -7.579,7.612 c -2.373,1.682 -4.891,2.196 -6.181,2.352 -0.499,0.06 -0.824,0.069 -0.902,0.07 -0.005,0 -0.01,0 -0.014,0 -1.043,0.036 -2.09,-0.078 -3.108,-0.339 -4.419,-1.247 -7.585,-5.19 -7.695,-9.589 -0.11,-2.754 1.196,-5.455 3.495,-7.227 2.166,-1.671 4.817,-2.198 7.276,-1.445 2.891,0.925 4.886,3.214 5.204,5.972 0.463,3.009 -1.329,5.748 -4.167,6.378 -1.539,0.236 -2.887,-0.185 -3.79,-1.19 -0.879,-1.099 -0.922,-2.602 -0.101,-3.732 0.375,-0.428 0.885,-0.679 1.392,-0.679 h 0.012 c 0.402,0.002 0.763,0.167 1.018,0.464 0.194,0.194 0.297,0.455 0.397,0.708 0.13,0.325 0.263,0.662 0.573,0.817 0.358,0.179 0.913,0.232 1.529,-0.526 0.196,-0.25 0.52,-0.771 0.511,-1.483 l -0.012,-0.213 c -0.029,-0.32 -0.108,-0.657 -0.239,-1.032 -0.077,-0.204 -0.211,-0.511 -0.421,-0.83 l -0.028,-0.041 c -0.031,-0.045 -0.053,-0.077 -0.076,-0.109 -0.883,-1.192 -2.209,-1.897 -3.74,-1.991 -1.636,-0.1 -3.279,0.539 -4.396,1.712 -1.182,1.181 -1.864,2.697 -1.971,4.383 -0.102,1.607 0.347,3.284 1.266,4.72 1.534,2.125 3.605,3.375 6.16,3.724 3.194,0.343 6.318,-0.966 8.583,-3.589 1.476,-1.764 2.326,-3.869 2.476,-6.111 0.008,-0.127 0.043,-0.629 0.038,-1.037 -0.028,-2.104 -0.764,-8.716 -8.438,-11.562 -0.539,-0.203 -1.083,-0.376 -1.614,-0.513 -0.009,-0.003 -0.018,-0.004 -0.027,-0.005 l 0.001,-0.002 c -1.952,-0.501 -3.926,-0.589 -5.872,-0.264 -0.332,0.054 -0.642,0.114 -0.928,0.176 1.841,-0.743 3.82,-1.129 5.817,-1.129 C -6.977,-15.55 0,-8.575 0,0"
             style="fill:#064458;fill-opacity:1;fill-rule:nonzero;stroke:none"
             id="path629" /></g><g
           id="g633"
           transform="translate(135.0889,200)" /><g
           id="g635"
           transform="translate(135.0889,128.8389)" /></g></g></g></svg>
